<svg xmlns="http://www.w3.org/2000/svg" width="1600" height="900" viewBox="0 0 1600 900" role="img" aria-labelledby="title desc">
  <title id="title">代码变快以后，软件开发真正要升级的是运行系统</title>
  <desc id="desc">白板手绘风格。左侧是高速工作的 AI 厨房，中间是忙于交接、测试和审核的人，右侧是等待交付的用户。</desc>
  <defs>
    <filter id="rough" x="-5%" y="-5%" width="110%" height="110%">
      <feTurbulence type="fractalNoise" baseFrequency="0.008" numOctaves="2" seed="11" result="noise"/>
      <feDisplacementMap in="SourceGraphic" in2="noise" scale="1.7"/>
    </filter>
    <style>
      .ink{fill:none;stroke:#161616;stroke-width:7;stroke-linecap:round;stroke-linejoin:round}
      .thin{fill:none;stroke:#161616;stroke-width:4;stroke-linecap:round;stroke-linejoin:round}
      .blue{stroke:#2563eb;fill:none}.green{stroke:#16a34a;fill:none}.orange{stroke:#f97316;fill:none}.red{stroke:#dc2626;fill:none}
      .txt{font-family:"Comic Sans MS","Marker Felt","PingFang SC","Microsoft YaHei",sans-serif;fill:#161616;font-weight:700}
      .small{font-size:27px}.mid{font-size:36px}.big{font-size:55px}.bluefill{fill:#2563eb}.greenfill{fill:#16a34a}.orangefill{fill:#f97316}.redfill{fill:#dc2626}
    </style>
  </defs>
  <rect width="1600" height="900" fill="#fff"/>

  <g filter="url(#rough)">
    <path class="ink" d="M72 65 Q250 25 413 64 Q438 72 433 104 L421 176 Q416 197 391 195 L101 190 Q76 188 72 165Z"/>
    <path class="ink" d="M526 42 Q802 10 1091 42 Q1120 47 1117 77 L1110 179 Q1107 205 1080 199 L559 200 Q529 198 526 170Z"/>
    <path class="ink" d="M1230 72 L1508 75 Q1525 78 1522 98 L1519 189 Q1517 207 1498 205 L1240 202 Q1222 198 1225 180Z"/>

    <text class="txt big bluefill" x="115" y="125">代码变快了</text>
    <text class="txt small bluefill" x="143" y="165">Coding is fast now</text>
    <text class="txt mid orangefill" x="575" y="103">真正变慢的是交接、验证、发布</text>
    <text class="txt small orangefill" x="650" y="151">handoffs · validation · release</text>
    <text class="txt mid" x="1272" y="126">用户 / 生产环境</text>
    <text class="txt small bluefill" x="1320" y="170">Users / Production</text>

    <!-- AI kitchen -->
    <rect x="58" y="225" width="455" height="454" rx="30" fill="#fff" stroke="#161616" stroke-width="7"/>
    <rect x="100" y="240" width="230" height="70" rx="12" fill="#fff" stroke="#161616" stroke-width="6"/>
    <text class="txt mid" x="135" y="286">AI 厨房</text>
    <text class="txt small bluefill" x="347" y="285">x10</text>
    <path class="thin blue" d="M68 263 l-28 0 M71 286 l-38 15 M74 242 l-28 -15"/>

    <!-- robot chef 1 -->
    <path class="ink" d="M116 375 q0-50 45-54 q45 4 45 54"/>
    <path class="ink" d="M125 323 q13-37 38-8 q24-32 39 7"/>
    <rect x="105" y="365" width="112" height="84" rx="35" fill="#fff" stroke="#161616" stroke-width="7"/>
    <rect x="124" y="381" width="74" height="45" rx="20" fill="#161616"/>
    <circle cx="145" cy="403" r="5" fill="#38bdf8"/><circle cx="178" cy="403" r="5" fill="#38bdf8"/>
    <path class="thin blue" d="M147 417 q15 13 29 0"/>
    <path class="ink" d="M124 449 q-18 46 2 100 M198 449 q25 37 12 100"/>
    <path class="ink" d="M129 486 q36 30 72 0"/>
    <path class="ink" d="M137 536 l-12 64 M193 536 l16 64"/>
    <path class="ink" d="M126 487 q-40 8-50 45 M201 487 q38 5 55 35"/>
    <path class="thin" d="M73 533 q43 20 81 2 M251 523 q-35 26-77 15"/>
    <ellipse cx="72" cy="548" rx="54" ry="16" fill="#fff" stroke="#161616" stroke-width="6"/>
    <path class="thin orange" d="M31 540 q38-21 78 1 M49 533 l10-14 M78 533 l14-17"/>

    <!-- robot chef 2 -->
    <path class="ink" d="M286 363 q0-42 38-47 q43 3 43 47"/>
    <path class="ink" d="M296 317 q10-28 29-8 q22-28 34 6"/>
    <rect x="278" y="354" width="101" height="74" rx="31" fill="#fff" stroke="#161616" stroke-width="7"/>
    <rect x="295" y="369" width="68" height="39" rx="18" fill="#161616"/>
    <circle cx="315" cy="389" r="5" fill="#38bdf8"/><circle cx="344" cy="389" r="5" fill="#38bdf8"/>
    <path class="thin blue" d="M317 401 q12 10 25 0"/>
    <path class="ink" d="M294 429 q-12 40 6 84 M361 429 q19 35 8 84"/>
    <path class="ink" d="M299 468 q31 25 64 0"/>
    <path class="ink" d="M300 450 q-33 1-54 21 M366 449 q38-11 57-35"/>
    <ellipse cx="438" cy="397" rx="53" ry="19" fill="#fff" stroke="#161616" stroke-width="6"/>
    <path class="thin orange" d="M398 393 q39 17 78 0"/>
    <circle cx="421" cy="388" r="7" fill="#16a34a"/><circle cx="443" cy="397" r="7" fill="#f97316"/><circle cx="460" cy="386" r="7" fill="#16a34a"/>

    <!-- robot chef 3 -->
    <path class="ink" d="M245 535 q0-36 33-39 q35 2 36 39"/>
    <path class="ink" d="M252 496 q9-24 26-7 q19-25 29 5"/>
    <rect x="238" y="527" width="86" height="64" rx="28" fill="#fff" stroke="#161616" stroke-width="6"/>
    <rect x="253" y="540" width="57" height="34" rx="15" fill="#161616"/>
    <circle cx="270" cy="558" r="4" fill="#38bdf8"/><circle cx="294" cy="558" r="4" fill="#38bdf8"/>
    <path class="thin blue" d="M271 568 q10 8 21 0"/>
    <path class="ink" d="M251 592 q-8 33 5 55 M312 592 q14 29 7 55"/>
    <path class="ink" d="M249 610 q-40 4-54 20 M317 608 q45 1 68 12"/>
    <ellipse cx="411" cy="622" rx="65" ry="18" fill="#fff" stroke="#161616" stroke-width="6"/>
    <circle cx="383" cy="617" r="7" fill="#16a34a"/><circle cx="405" cy="626" r="7" fill="#f97316"/><circle cx="431" cy="614" r="7" fill="#16a34a"/>

    <path class="thin blue" d="M91 341 l-26-15 M222 334 l24-19 M376 323 l28-13 M418 448 l25 15"/>
    <path class="thin orange" d="M216 398 q16-35 31 0 M220 409 q16-28 31 0"/>
    <path class="thin" d="M79 649 H488"/>
    <text class="txt small" x="96" y="670">生成代码 · 单元测试 · 文档</text>

    <!-- center handoff chaos -->
    <text class="txt small bluefill" x="570" y="244">产品 / 需求</text>
    <text class="txt small bluefill" x="791" y="244">交接协调</text>
    <text class="txt small bluefill" x="1002" y="244">测试验证</text>

    <!-- product -->
    <circle cx="641" cy="364" r="46" fill="#fff" stroke="#161616" stroke-width="7"/>
    <path class="ink" d="M603 351 q35-58 76-1"/>
    <path class="thin" d="M625 367 q8 9 16 0 M655 367 q8 9 16 0"/>
    <path class="thin" d="M637 389 q14 8 27 0"/>
    <path class="ink" d="M596 421 q45-45 91 0 l12 137 H583Z" fill="#fff"/>
    <rect x="603" y="434" width="74" height="98" rx="5" fill="#fff" stroke="#161616" stroke-width="5"/>
    <path class="thin" d="M615 456 h50 M615 476 h39 M615 496 h46"/>
    <path class="thin orange" d="M574 338 q-23-24-40 1 M537 339 q18 7 29 29"/>
    <text class="txt small" x="525" y="324">优先级？</text>

    <!-- coordinator -->
    <circle cx="827" cy="341" r="49" fill="#fff" stroke="#161616" stroke-width="7"/>
    <path class="ink" d="M788 329 q38-53 81-1"/>
    <path class="thin" d="M808 348 q8 9 16 0 M839 348 q8 9 16 0"/>
    <path class="thin" d="M822 370 q12-8 24 0"/>
    <path class="ink" d="M777 401 q50-42 101 0 l23 151 H753Z" fill="#fff"/>
    <path class="ink" d="M777 430 q-51 9-75 45 M875 430 q47-11 77 30"/>
    <rect x="686" y="432" width="73" height="107" rx="5" fill="#fff" stroke="#161616" stroke-width="5" transform="rotate(-8 722 485)"/>
    <path class="thin" d="M698 454 h47 M699 475 h39 M702 497 h45"/>
    <rect x="905" y="408" width="76" height="109" rx="5" fill="#fff" stroke="#161616" stroke-width="5" transform="rotate(7 943 463)"/>
    <path class="thin" d="M918 431 h49 M918 452 h39 M918 474 h45"/>
    <path class="thin orange" d="M781 286 l-16-22 M809 279 l-5-26 M859 281 l10-25 M881 294 l23-17"/>

    <!-- tester -->
    <circle cx="1046" cy="360" r="44" fill="#fff" stroke="#161616" stroke-width="7"/>
    <path class="ink" d="M1007 350 q39-49 78 0"/>
    <path class="thin" d="M1031 365 q7 8 14 0 M1058 365 q7 8 14 0"/>
    <path class="ink" d="M1004 415 q43-38 87 0 l16 130 H991Z" fill="#fff"/>
    <circle cx="977" cy="415" r="34" fill="#fff" stroke="#161616" stroke-width="7"/>
    <path class="ink" d="M953 440 l-40 61"/>
    <rect x="1023" y="430" width="68" height="91" rx="5" fill="#fff" stroke="#161616" stroke-width="5"/>
    <path class="thin green" d="M1037 454 l9 9 l17-22 M1037 480 l9 9 l17-22"/>
    <text class="txt small" x="1011" y="311">边界情况？</text>

    <!-- reviewer -->
    <circle cx="835" cy="575" r="42" fill="#fff" stroke="#161616" stroke-width="7"/>
    <circle cx="820" cy="574" r="12" fill="#fff" stroke="#161616" stroke-width="4"/><circle cx="851" cy="574" r="12" fill="#fff" stroke="#161616" stroke-width="4"/>
    <path class="thin" d="M832 574 h7 M825 598 q13 9 26 0"/>
    <path class="ink" d="M791 622 q44-39 89 0 l16 91 H775Z" fill="#fff"/>
    <rect x="813" y="625" width="67" height="78" rx="5" fill="#fff" stroke="#161616" stroke-width="5"/>
    <path class="thin" d="M825 647 h42 M825 666 h35 M825 684 h39"/>
    <text class="txt small" x="761" y="735">评审 / 质量</text>

    <!-- scattered notes -->
    <g transform="rotate(-8 0 0)"><rect x="510" y="557" width="105" height="73" rx="6" fill="#fff" stroke="#161616" stroke-width="5"/><text class="txt small" x="525" y="602">需求变更</text></g>
    <g transform="rotate(7 0 0)"><rect x="622" y="526" width="95" height="70" rx="6" fill="#fff" stroke="#161616" stroke-width="5"/><text class="txt small" x="641" y="569">缺陷单</text></g>
    <g transform="rotate(-5 0 0)"><rect x="948" y="577" width="112" height="74" rx="6" fill="#fff" stroke="#161616" stroke-width="5"/><text class="txt small" x="962" y="622">发布计划</text></g>
    <path class="thin green" stroke-dasharray="12 13" d="M550 520 q55-54 109-5 q55 48 106 5 M900 532 q75-54 131 12"/>
    <path class="thin orange" stroke-dasharray="10 12" d="M695 382 q63 53 107 18 M873 394 q52 39 92 10 M929 562 q-47 28-78 9"/>

    <!-- users -->
    <ellipse cx="1366" cy="558" rx="168" ry="75" fill="#fff" stroke="#161616" stroke-width="7"/>
    <path class="ink" d="M1236 555 q-6-125 52-157 M1321 514 q-7-121 48-152 M1410 514 q10-122 63-153 M1492 550 q16-105 65-128"/>
    <circle cx="1289" cy="382" r="36" fill="#fff" stroke="#161616" stroke-width="6"/><circle cx="1368" cy="352" r="38" fill="#fff" stroke="#161616" stroke-width="6"/><circle cx="1467" cy="364" r="37" fill="#fff" stroke="#161616" stroke-width="6"/><circle cx="1540" cy="416" r="34" fill="#fff" stroke="#161616" stroke-width="6"/>
    <path class="thin" d="M1276 389 q12-8 25 0 M1354 360 q13-9 27 0 M1453 372 q13-9 27 0 M1528 424 q11-7 22 0"/>
    <rect x="1324" y="423" width="98" height="75" rx="6" fill="#fff" stroke="#161616" stroke-width="5"/>
    <text class="txt small" x="1340" y="456">功能清单</text>
    <path class="thin" d="M1341 472 h64 M1341 488 h50"/>
    <path class="ink" d="M1231 292 q122-55 245 0 q26 13 15 41 l-19 47 q-8 18-30 12 l-177 2 q-24 0-32-20 l-17-48 q-9-22 15-34Z"/>
    <text class="txt mid" x="1260" y="340">怎么还没好？</text>
    <path class="thin red" d="M1514 293 l27-22 M1522 318 l35-5 M1506 269 l8-31"/>
    <path class="thin" d="M1502 255 q25-34 50 0 l-7 42 h-36Z M1514 269 h27"/>

    <!-- bottom banner -->
    <path class="ink" d="M364 751 Q799 730 1200 751 L1184 856 Q790 871 381 851Z" fill="#fff"/>
    <path d="M362 746 l43 17 l-16 31 l-45-18Z" fill="#2563eb"/><path d="M1184 746 l42 20 l-17 31 l-43-18Z" fill="#2563eb"/>
    <path class="thin orange" d="M431 800 l12 24 l27 4 l-20 18 l5 27 l-24-13 l-25 13 l5-27 l-20-18 l28-4Z" fill="#facc15"/>
    <text class="txt big" x="485" y="820">软件开发真正要升级的是</text>
    <text class="txt big bluefill" x="1035" y="820">运行系统</text>
  </g>
</svg>